<?xml version="1.0" encoding="utf-8"?>
<!-- Generator: Adobe Illustrator 15.1.0, SVG Export Plug-In . SVG Version: 6.00 Build 0)  -->
<!DOCTYPE svg PUBLIC "-//W3C//DTD SVG 1.1//EN" "http://www.w3.org/Graphics/SVG/1.1/DTD/svg11.dtd">
<svg version="1.1" id="Layer_1" xmlns="http://www.w3.org/2000/svg" xmlns:xlink="http://www.w3.org/1999/xlink" x="0px" y="0px"
	 width="1000px" height="676px" viewBox="0 0 1000 676" enable-background="new 0 0 1000 676" xml:space="preserve">
<path fill="#010101" d="M666.207,93.615c-0.878-1.836-3.049-2.619-4.896-1.758c-1.846,0.853-2.646,3.05-1.801,4.896
	c0.387,0.861,1.02,3.093,0.387,4.209c-0.52,0.932-2.249,1.257-3.234,1.371l-1.248,0.132c-10.677,1.187-34.221,3.797-46.682,11.284
	c-0.747-0.22-1.547-0.299-2.373-0.202c-3.365,0.369-5.765,3.4-5.404,6.767c0.396,3.357,3.41,5.783,6.775,5.404
	c3.111-0.351,5.396-2.979,5.422-6.037c11.03-6.318,33.887-8.85,43.035-9.869l1.266-0.141c5.334-0.597,7.776-3.12,8.91-5.123
	C669.028,99.82,666.506,94.231,666.207,93.615z"/>
<g>
	<path fill="#010101" d="M694.602,121.526c-16.215,0-36.752,8.542-36.752,19.087c0,10.537,20.537,19.079,36.752,19.079
		c2.354,0,4.613-0.193,6.775-0.536v-37.095C699.215,121.729,696.947,121.526,694.602,121.526z"/>
</g>
<path fill="#010101" d="M801.806,252.625h-43.527c-27.365,0-31.732-12.654-31.917-13.199l-0.08-0.325l-16.521-89.48h140.547
	l-16.6,89.805C833.539,239.971,829.146,252.625,801.806,252.625z M731.089,238.02c0.457,0.984,5.098,9.685,27.189,9.685h43.527
	c22.146,0,26.707-8.665,27.164-9.685l15.476-83.478H715.622L731.089,238.02z"/>
<path fill="#010101" d="M804.873,272.504c0.202-0.501,0.352-1.011,0.448-1.556c0.659-4.025-2.074-7.821-6.099-8.472
	c-33.747-5.492-67.668-1.388-98.531,11.486l-32.34-92.529c-0.984-2.865-3.594-4.719-6.433-4.93l-11.653-32.111
	c-0.035-0.088-3.137-8.182,4.35-14.553l29.66-21.179c0.061-0.052,0.132-0.096,0.192-0.158c3.858-3.173,6.081-7.875,6.081-12.866
	c0-9.184-7.486-16.671-16.679-16.671h-25.222v-9.579c0-1.608-1.3-2.917-2.918-2.917c-1.617,0-2.917,1.31-2.917,2.917v3.243h-51.234
	c-5.606,0-7.698,4.552-7.698,10.159s2.092,10.15,7.698,10.15h51.234v3.243c0,1.608,1.3,2.917,2.917,2.917
	c1.618,0,2.918-1.309,2.918-2.917v-9.834h25.222c5.124,0,9.298,4.166,9.298,9.289c0,2.75-1.221,5.325-3.313,7.101l-29.658,21.179
	c-0.08,0.062-0.15,0.114-0.222,0.176c-9.358,7.831-8.392,18.49-6.607,22.937l11.899,32.753c-1.257,1.863-1.662,4.244-0.871,6.52
	l1.072,3.032c-0.764,0.536-1.44,1.222-1.969,2.039l-86.245,134.641c-0.211,0.317-21.311,32.911-58.08,39.124
	c-25.704,4.342-53.254-4.982-81.965-27.664l-36.498-97.107c-0.755-2.012-2.311-3.489-4.166-4.227l-13.164-36.057h46.339
	c6.688,0,12.936-6.248,12.936-12.927c0-6.688-5.422-12.11-12.109-12.11H317.068c-6.284,0-11.389,4.79-11.996,10.915l-0.123-0.026
	v13.955c0,11.565,9.376,20.942,20.95,20.942h13.973c13.165,0,20.511-6.371,25.266-14.597l12.145,33.28
	c-0.958,1.802-1.195,3.981-0.413,6.046l3.41,9.07l-19.87,27.093c-0.185-0.228-0.386-0.457-0.642-0.65l-50.909-39.397
	c-0.65-0.509-1.45-0.773-2.267-0.773H155.493c-10.537,0-18.191,2.293-22.955,6.775c-0.07-3.796-3.155-6.854-6.969-6.854h-8.234
	c-3.849,0-6.987,3.12-6.987,6.978v13.947c0,3.858,3.129,6.977,6.987,6.977h8.225c0.827,0,1.609-0.167,2.338-0.421
	c1.872,8.042,6.099,14.746,6.38,15.168l3.655,5.923c-38.667,25.969-67.114,66.525-76.692,114.64c-0.8,3.981,1.802,7.882,5.809,8.682
	c1.687,0.343,3.339,0.054,4.771-0.686c-1.555,9.254-2.408,18.693-2.408,28.368c0,93.821,76.122,169.89,170.012,169.89
	c69.355,0,128.955-41.532,155.398-101.035l88.979,18.489c9.411,0,18.278-2.434,25.959-6.731l16.759,22.339h-6.16
	c-3.841,0-6.978,3.111-6.978,6.961v8.217c0,3.849,3.137,6.977,6.978,6.977h30.389c3.849,0,6.996-3.128,6.996-6.977v-8.217
	c0-3.85-3.139-6.961-6.996-6.961h-18.077l-18.691-24.948c14.017-9.614,23.227-25.731,23.227-44.002
	c0-16.117-7.162-30.538-18.463-40.319L681.49,263.804l5.729,16.398c-7.205,3.717-14.2,7.909-20.96,12.628
	c-70.549,49.362-96.605,142.295-61.998,220.975c1.221,2.758,3.919,4.411,6.775,4.411c0.992,0,2.003-0.194,2.971-0.625
	c1.616-0.703,2.812-1.933,3.559-3.4c27.813,55.979,85.551,94.479,152.322,94.479C863.779,608.68,939.9,532.602,939.9,438.782
	C939.9,356.931,881.962,288.621,804.873,272.504z M135.711,255.411c2.583-4.719,9.236-7.127,19.773-7.127h149.844l49.916,38.624
	c0.298,0.237,0.632,0.396,0.975,0.527l-6.634,9.052c-30.644-23.753-69.047-37.929-110.747-37.929
	c-34.379,0-66.921,9.773-94.691,26.839l-3.629-5.862C137.819,275.316,131.686,262.767,135.711,255.411z M328.308,325.514
	l-74.267,101.298c-3.647-3.928-8.841-6.396-14.624-6.396c-3.682,0-7.109,1.01-10.07,2.751l-65.919-106.608
	c22.111-13.578,48.132-21.425,75.99-21.425C272.909,295.133,303.728,306.496,328.308,325.514z M239.426,585.655
	c-80.278,0-145.354-65.031-145.354-145.257c0-49.74,25.02-93.618,63.168-119.798l66.463,107.477
	c-2.662,3.401-4.262,7.654-4.262,12.313c0,11.029,8.946,19.967,19.983,19.967c8.182,0,15.194-4.913,18.288-11.943
	c-0.342,1.906-0.544,3.858-0.544,5.87c0,18.367,14.14,28.914,33.254,33.236l79.637,16.566
	C346.447,552.384,296.821,585.655,239.426,585.655z M290.415,421.056c-14.307,0-26.487,9.061-31.171,21.76
	c0.097-0.8,0.167-1.608,0.167-2.408c0-2.391-0.449-4.64-1.204-6.775l75.84-103.444c26.417,22.673,44.581,54.653,49.397,90.868
	H290.415L290.415,421.056z M418.991,421.056c-4.877-47.973-28.623-90.429-63.633-119.92l28.024-38.245l59.442,158.166H418.991
	L418.991,421.056z M674.099,250.165l-167.992,175.76c-6.801-3.119-14.351-4.878-22.303-4.878h-25.178l-22.226-59.1
	c20.503,12.621,40.671,18.975,60.277,18.975c5.079,0,10.114-0.423,15.106-1.274c43.325-7.409,66.982-44.212,67.931-45.725
	l81.685-127.531l14.781,42.252C675.416,249.031,674.705,249.523,674.099,250.165z M769.888,584.047
	c-80.287,0-145.336-65.03-145.336-145.257c0-54.248,29.792-101.527,73.881-126.477l15.634,44.758
	c0.853,5.765,11.731,29.403,45.496,77.035c-0.651,1.423-1.011,3.005-1.011,4.676c0,6.274,5.079,11.345,11.336,11.345
	c6.274,0,11.354-5.07,11.354-11.345c0-5.678-4.192-10.335-9.632-11.171c-37.806-51.4-42.912-72.641-42.921-72.72
	c-0.053-0.668-0.176-1.301-0.404-1.934l-16.529-47.314c17.804-7.786,37.453-12.127,58.122-12.127
	c80.288,0,145.354,65.04,145.354,145.266C915.232,519.008,850.175,584.047,769.888,584.047z"/>
</svg>
